<?xml version="1.0" encoding="iso-8859-1"?>
<!-- Generator: Adobe Illustrator 17.1.0, SVG Export Plug-In . SVG Version: 6.00 Build 0)  -->
<!DOCTYPE svg PUBLIC "-//W3C//DTD SVG 1.1//EN" "http://www.w3.org/Graphics/SVG/1.1/DTD/svg11.dtd">
<svg version="1.1" id="Layer_1" xmlns="http://www.w3.org/2000/svg" xmlns:xlink="http://www.w3.org/1999/xlink" x="0px" y="0px"
	 viewBox="0 0 50 50" style="enable-background:new 0 0 50 50;" xml:space="preserve">
<g>
	<linearGradient id="SVGID_1_" gradientUnits="userSpaceOnUse" x1="8.5701" y1="6.2232" x2="41.4294" y2="43.7778">
		<stop  offset="0" style="stop-color:#C9D400"/>
		<stop  offset="1" style="stop-color:#889400"/>
	</linearGradient>
	<path style="fill:url(#SVGID_1_);" d="M49.51,23.514l-2.184-2.955l0.887-3.566c0.265-1.066-0.196-2.18-1.137-2.746l-3.149-1.894
		l-0.545-3.634c-0.162-1.086-1.016-1.939-2.102-2.102l-3.634-0.545l-1.894-3.149c-0.459-0.764-1.28-1.212-2.142-1.212
		c-0.2,0-0.403,0.024-0.604,0.074L29.44,2.673l-2.955-2.184C26.044,0.163,25.523,0,25,0c-0.522,0-1.044,0.163-1.486,0.489
		l-2.955,2.184l-3.566-0.887c-0.201-0.05-0.403-0.074-0.604-0.074c-0.862,0-1.683,0.448-2.142,1.212l-1.894,3.149L8.719,6.618
		C7.633,6.78,6.781,7.633,6.618,8.719l-0.545,3.634l-3.149,1.894c-0.941,0.566-1.402,1.68-1.137,2.746l0.887,3.566l-2.184,2.955
		c-0.652,0.883-0.652,2.089,0,2.972l2.184,2.955l-0.887,3.566c-0.265,1.066,0.196,2.18,1.137,2.746l3.149,1.894l0.545,3.634
		c0.162,1.086,1.016,1.939,2.102,2.102l3.633,0.545l1.894,3.149c0.459,0.764,1.28,1.212,2.142,1.212c0.2,0,0.403-0.024,0.604-0.074
		l3.566-0.887l2.955,2.184C23.956,49.837,24.478,50,25,50c0.523,0,1.044-0.163,1.486-0.489l2.955-2.184l3.566,0.887
		c0.201,0.05,0.403,0.074,0.604,0.074c0.862,0,1.683-0.448,2.142-1.212l1.894-3.149l3.634-0.545
		c1.086-0.163,1.939-1.015,2.102-2.102l0.545-3.634l3.149-1.894c0.941-0.566,1.403-1.68,1.137-2.746l-0.887-3.566l2.184-2.955
		C50.163,25.603,50.163,24.397,49.51,23.514L49.51,23.514z"/>
	<g>
		<g>
			<path style="fill:#FFFFFF;" d="M7.367,28.385l3.489-9.085h1.295l3.718,9.085H14.5l-1.06-2.751H9.641l-0.998,2.751H7.367z
				 M9.988,24.654h3.08l-0.948-2.516c-0.289-0.764-0.504-1.392-0.644-1.884c-0.116,0.583-0.279,1.161-0.49,1.735L9.988,24.654z"/>
			<path style="fill:#FFFFFF;" d="M16.681,21.804h1.115v2.844c0.355,0,0.603-0.068,0.747-0.205c0.142-0.136,0.352-0.533,0.628-1.19
				c0.22-0.521,0.397-0.863,0.534-1.029c0.136-0.165,0.292-0.277,0.471-0.335c0.177-0.058,0.463-0.087,0.854-0.087h0.223v0.923
				l-0.309-0.006c-0.294,0-0.482,0.043-0.564,0.13c-0.087,0.091-0.219,0.361-0.397,0.812c-0.169,0.43-0.325,0.727-0.465,0.892
				c-0.14,0.165-0.357,0.316-0.65,0.452c0.479,0.128,0.95,0.574,1.413,1.339l1.22,2.039h-1.226l-1.19-2.039
				c-0.245-0.409-0.457-0.679-0.639-0.809c-0.182-0.131-0.399-0.195-0.65-0.195v3.043h-1.115V21.804z"/>
			<path style="fill:#FFFFFF;" d="M22.259,21.804h1.115v5.664h3.085v-5.664h1.115v5.664h0.719v2.782h-0.917v-1.865h-5.118V21.804z"
				/>
			<path style="fill:#FFFFFF;" d="M29.508,21.804h1.115v5.02l3.093-5.02h1.202v6.581h-1.115v-4.989l-3.092,4.989h-1.203V21.804z"/>
			<path style="fill:#FFFFFF;" d="M41.778,21.804v6.581H40.67V25.82h-0.644c-0.392,0-0.685,0.051-0.877,0.152
				c-0.193,0.101-0.472,0.426-0.84,0.976l-0.973,1.438h-1.382l1.203-1.772c0.367-0.541,0.733-0.847,1.096-0.917
				c-0.636-0.087-1.108-0.316-1.416-0.688c-0.308-0.372-0.462-0.799-0.462-1.283c0-0.57,0.202-1.033,0.605-1.388
				c0.402-0.355,0.987-0.533,1.75-0.533H41.778z M40.67,22.727h-1.586c-0.665,0-1.094,0.103-1.286,0.31
				c-0.193,0.207-0.288,0.448-0.288,0.725c0,0.392,0.141,0.681,0.425,0.864c0.283,0.184,0.784,0.276,1.503,0.276h1.233V22.727z"/>
		</g>
	</g>
</g>
</svg>
