<svg xmlns="http://www.w3.org/2000/svg" id="Слой_1" x="40px" y="40px" viewBox="0 0 40 40"><style>.st0{fill:#0D0F0F;}</style><path d="M30.3 28.8c-1 0-1.9.4-2.6 1.1-.7.8-1.1 1.7-1.1 2.7 0 1 .4 1.9 1.1 2.7.7.7 1.6 1.1 2.6 1.1s1.9-.4 2.6-1.1c.7-.8 1.1-1.6 1.1-2.7 0-1-.4-1.9-1.1-2.7-.7-.8-1.5-1.1-2.6-1.1zm0 5.3c-.8 0-1.5-.7-1.5-1.5s.7-1.6 1.5-1.6 1.5.7 1.5 1.6c.1.8-.7 1.5-1.5 1.5zM19.6 28.8c-1 0-1.9.4-2.6 1.1-.7.8-1.1 1.6-1.1 2.7 0 1 .4 1.9 1.1 2.7.7.8 1.6 1.1 2.6 1.1s1.9-.4 2.6-1.1c.7-.8 1.1-1.7 1.1-2.7 0-1-.4-1.9-1.1-2.7-.7-.8-1.6-1.1-2.6-1.1zm0 5.3c-.9 0-1.5-.7-1.5-1.5s.7-1.6 1.5-1.6 1.5.7 1.5 1.6c-.1.8-.7 1.5-1.5 1.5zM39.2 5.5c-.6-.2-1.2.2-1.4.7l-1.1 3.9H9.5L7.6 6c-.2-.5-.5-.7-1-.7H1.3C.7 5.3.2 5.8.2 6.4c0 .6.5 1.1 1.1 1.1h4.6L14.6 27c.2.5.6.7 1 .7H33c.5 0 .9-.3 1.1-.8l5.9-20c.1-.6-.2-1.2-.8-1.4zm-7 20H16.4l-5.9-13.1H36l-3.8 13.1z" class="st0"/></svg>