<?xml version="1.0" encoding="iso-8859-1"?>
<!-- Generator: Adobe Illustrator 17.1.0, SVG Export Plug-In . SVG Version: 6.00 Build 0)  -->
<!DOCTYPE svg PUBLIC "-//W3C//DTD SVG 1.1//EN" "http://www.w3.org/Graphics/SVG/1.1/DTD/svg11.dtd">
<svg version="1.1" id="Layer_1" xmlns="http://www.w3.org/2000/svg" xmlns:xlink="http://www.w3.org/1999/xlink" x="0px" y="0px"
	 viewBox="0 0 50 50" style="enable-background:new 0 0 50 50;" xml:space="preserve">
<g>
	<linearGradient id="SVGID_1_" gradientUnits="userSpaceOnUse" x1="8.5701" y1="6.2232" x2="41.4294" y2="43.7778">
		<stop  offset="0" style="stop-color:#FF5200"/>
		<stop  offset="1" style="stop-color:#6A2500"/>
	</linearGradient>
	<path style="fill:url(#SVGID_1_);" d="M49.51,23.514l-2.184-2.955l0.887-3.566c0.265-1.066-0.196-2.18-1.137-2.746l-3.149-1.894
		l-0.545-3.634c-0.162-1.086-1.016-1.939-2.102-2.102l-3.634-0.545l-1.894-3.149c-0.459-0.764-1.28-1.212-2.142-1.212
		c-0.2,0-0.403,0.024-0.604,0.074L29.44,2.673l-2.955-2.184C26.044,0.163,25.523,0,25,0c-0.522,0-1.044,0.163-1.486,0.489
		l-2.955,2.184l-3.566-0.887c-0.201-0.05-0.403-0.074-0.604-0.074c-0.862,0-1.683,0.448-2.142,1.212l-1.894,3.149L8.719,6.618
		C7.633,6.78,6.781,7.633,6.618,8.719l-0.545,3.634l-3.149,1.894c-0.941,0.566-1.402,1.68-1.137,2.746l0.887,3.566l-2.184,2.955
		c-0.652,0.883-0.652,2.089,0,2.972l2.184,2.955l-0.887,3.566c-0.265,1.066,0.196,2.18,1.137,2.746l3.149,1.894l0.545,3.634
		c0.162,1.086,1.016,1.939,2.102,2.102l3.633,0.545l1.894,3.149c0.459,0.764,1.28,1.212,2.142,1.212c0.2,0,0.403-0.024,0.604-0.074
		l3.566-0.887l2.955,2.184C23.956,49.837,24.478,50,25,50c0.523,0,1.044-0.163,1.486-0.489l2.955-2.184l3.566,0.887
		c0.201,0.05,0.403,0.074,0.604,0.074c0.862,0,1.683-0.448,2.142-1.212l1.894-3.149l3.634-0.545
		c1.086-0.163,1.939-1.015,2.102-2.102l0.545-3.634l3.149-1.894c0.941-0.566,1.403-1.68,1.137-2.746l-0.887-3.566l2.184-2.955
		C50.163,25.603,50.163,24.397,49.51,23.514L49.51,23.514z"/>
	<g>
		<g>
			<path style="fill:#FFFFFF;" d="M14.372,28.385l3.514-4.735l-3.099-4.35h1.431l1.648,2.33c0.343,0.483,0.587,0.855,0.731,1.115
				c0.202-0.331,0.442-0.675,0.719-1.035l1.829-2.411h1.307l-3.191,4.282l3.439,4.803h-1.487l-2.286-3.241
				c-0.128-0.186-0.26-0.388-0.397-0.607c-0.202,0.331-0.347,0.558-0.434,0.682l-2.281,3.167H14.372z"/>
			<path style="fill:#FFFFFF;" d="M23.618,21.804h1.115v5.02l3.093-5.02h1.202v6.581h-1.115v-4.989l-3.093,4.989h-1.202V21.804z"/>
			<path style="fill:#FFFFFF;" d="M30.107,21.804h5.348v0.923h-2.119v5.658h-1.109v-5.658h-2.119V21.804z"/>
		</g>
	</g>
</g>
</svg>
