<svg xmlns="http://www.w3.org/2000/svg" id="Слой_1" x="140px" y="14px" viewBox="0 0 140 14"><style>.st0{fill:#BBD57E;} .st1{fill:#A0C872;} .st2{fill:#FFFFFF;} .st3{font-family:&apos;Verdana&apos;;} .st4{font-size:10px;}</style><path d="M7.1 12.2c-2.9 0-5.3-2.4-5.3-5.3s2.4-5.3 5.3-5.3 5.2 2.4 5.2 5.3-2.3 5.3-5.2 5.3z" class="st0"/><path d="M9.6 10.5c-2.9 0-5.3-2.4-5.3-5.3 0-1.2.4-2.3 1.1-3.2-2 .7-3.5 2.7-3.5 5 0 2.9 2.4 5.3 5.3 5.3 1.7 0 3.2-.8 4.1-2-.6.1-1.1.2-1.7.2z" class="st1"/><path d="M6 9.7c-.1 0-.2 0-.3-.1L3.6 7.4c-.1-.1-.1-.4 0-.5.1-.1.4-.1.5 0L6 8.8l3.7-3.7c.1-.1.4-.1.5 0 .1.1.1.4 0 .5l-4 4c0 .1-.1.1-.2.1z" class="st2"/><text transform="matrix(.96 0 0 1 13.96 10.88)" class="st3 st4">СКЛАДСКАЯ ПРОГРАММА</text></svg>