<?xml version="1.0" encoding="iso-8859-1"?>
<!-- Generator: Adobe Illustrator 17.1.0, SVG Export Plug-In . SVG Version: 6.00 Build 0)  -->
<!DOCTYPE svg PUBLIC "-//W3C//DTD SVG 1.1//EN" "http://www.w3.org/Graphics/SVG/1.1/DTD/svg11.dtd">
<svg version="1.1" id="Layer_1" xmlns="http://www.w3.org/2000/svg" xmlns:xlink="http://www.w3.org/1999/xlink" x="0px" y="0px"
	 viewBox="0 0 50 50" style="enable-background:new 0 0 50 50;" xml:space="preserve">
<g>
	<linearGradient id="SVGID_1_" gradientUnits="userSpaceOnUse" x1="9.0926" y1="6.8205" x2="46.8359" y2="49.9569">
		<stop  offset="0" style="stop-color:#64FF2A"/>
		<stop  offset="1" style="stop-color:#195500"/>
	</linearGradient>
	<path style="fill:url(#SVGID_1_);" d="M49.51,23.514l-2.184-2.955l0.887-3.566c0.265-1.066-0.196-2.18-1.137-2.746l-3.149-1.894
		l-0.545-3.634c-0.162-1.086-1.016-1.939-2.102-2.102l-3.634-0.545l-1.894-3.149c-0.459-0.764-1.28-1.212-2.142-1.212
		c-0.2,0-0.403,0.024-0.604,0.074L29.44,2.673l-2.955-2.184C26.044,0.163,25.523,0,25,0c-0.522,0-1.044,0.163-1.486,0.489
		l-2.955,2.184l-3.566-0.888c-0.201-0.05-0.403-0.074-0.604-0.074c-0.862,0-1.683,0.448-2.142,1.212l-1.894,3.149L8.719,6.617
		C7.633,6.78,6.781,7.633,6.618,8.719l-0.545,3.634l-3.149,1.894c-0.941,0.566-1.402,1.68-1.137,2.746l0.887,3.566l-2.184,2.955
		c-0.652,0.883-0.652,2.089,0,2.972l2.184,2.955l-0.887,3.566c-0.265,1.066,0.196,2.18,1.137,2.746l3.149,1.894l0.545,3.634
		c0.162,1.086,1.016,1.939,2.102,2.102l3.633,0.545l1.894,3.149c0.459,0.764,1.28,1.212,2.142,1.212c0.2,0,0.403-0.024,0.604-0.074
		l3.566-0.887l2.955,2.184C23.956,49.837,24.478,50,25,50c0.523,0,1.044-0.163,1.486-0.489l2.955-2.184l3.566,0.888
		c0.201,0.05,0.403,0.074,0.604,0.074c0.862,0,1.683-0.448,2.142-1.212l1.894-3.149l3.634-0.545
		c1.086-0.163,1.939-1.015,2.102-2.102l0.545-3.634l3.149-1.894c0.941-0.566,1.403-1.68,1.137-2.746l-0.887-3.566l2.184-2.955
		C50.163,25.603,50.163,24.397,49.51,23.514L49.51,23.514z"/>
	<g>
		<path style="fill:#FFFFFF;" d="M13.272,28.385V19.3h1.233l4.772,7.133V19.3h1.153v9.085h-1.233l-4.772-7.139v7.139H13.272z"/>
		<path style="fill:#FFFFFF;" d="M26.813,26.266l1.153,0.143c-0.182,0.673-0.518,1.196-1.01,1.568
			c-0.492,0.372-1.12,0.558-1.884,0.558c-0.963,0-1.726-0.296-2.29-0.889c-0.564-0.593-0.846-1.425-0.846-2.495
			c0-1.107,0.285-1.967,0.855-2.578c0.57-0.611,1.31-0.917,2.219-0.917c0.88,0,1.599,0.3,2.157,0.899
			c0.558,0.599,0.837,1.442,0.837,2.528c0,0.066-0.002,0.165-0.006,0.297h-4.908c0.041,0.723,0.246,1.277,0.614,1.661
			c0.368,0.384,0.826,0.576,1.376,0.576c0.409,0,0.758-0.107,1.047-0.322C26.414,27.08,26.643,26.737,26.813,26.266z M23.15,24.462
			h3.675c-0.05-0.554-0.19-0.969-0.421-1.246c-0.355-0.43-0.816-0.644-1.382-0.644c-0.512,0-0.943,0.171-1.292,0.514
			C23.38,23.43,23.187,23.888,23.15,24.462z"/>
		<path style="fill:#FFFFFF;" d="M30.581,28.385l-2.014-6.581h1.153l1.047,3.799l0.39,1.413c0.017-0.07,0.13-0.523,0.341-1.357
			l1.047-3.855h1.146l0.985,3.817l0.328,1.258l0.378-1.27l1.128-3.805h1.084l-2.057,6.581h-1.159l-1.047-3.941l-0.254-1.122
			l-1.332,5.063H30.581z"/>
	</g>
</g>
</svg>
